<?xml version="1.0" encoding="iso-8859-1"?>
<!-- Generator: Adobe Illustrator 19.0.0, SVG Export Plug-In . SVG Version: 6.00 Build 0)  -->
<svg version="1.1" id="Layer_1" xmlns="http://www.w3.org/2000/svg" xmlns:xlink="http://www.w3.org/1999/xlink" x="0px" y="0px"
	 viewBox="0 0 512 512" style="enable-background:new 0 0 512 512;" xml:space="preserve">
<g>
	<path style="fill:#FFCB00;" d="M75.28,0c-1.752,0-3.186,1.434-3.186,3.184v65.073c0,1.751,1.434,3.184,3.186,3.184h62.877
		c1.752,0,2.36-1.171,1.351-2.604L92.832,2.603C91.823,1.171,89.564,0,87.813,0H75.28z"/>
	<path style="fill:#FFCB00;" d="M52.96,71.221c0.44,1.695-0.633,3.082-2.386,3.082H18.666c-1.752,0-3.186-1.434-3.186-3.184V22.15
		c0-1.751,1.434-3.184,3.186-3.184H36.22c1.752,0,3.545,1.387,3.984,3.082L52.96,71.221z"/>
</g>
<path style="fill:#F39600;" d="M194.381,67.525h-9.738c-3.651-7.827-11.605-13.259-20.833-13.259H26.008
	c-12.685,0-22.966,10.251-22.966,22.898c0,12.647,10.282,22.9,22.966,22.9h168.374c9.013,0,16.319-7.285,16.319-16.269
	C210.7,74.812,203.394,67.525,194.381,67.525z"/>
<path style="opacity:0.1;enable-background:new    ;" d="M26.374,77.165c0-12.645,10.282-22.898,22.967-22.898H26.008
	c-12.685,0-22.966,10.251-22.966,22.898c0,12.647,10.282,22.9,22.966,22.9h23.333C36.656,100.065,26.374,89.812,26.374,77.165z"/>
<path style="fill:#FFCB00;" d="M75.283,151.802c-1.752,0-3.186-1.434-3.186-3.184V83.546c0-1.751,1.434-3.184,3.186-3.184h62.878
	c1.751,0,2.359,1.171,1.35,2.604l-46.677,66.233c-1.009,1.432-3.268,2.603-5.02,2.603L75.283,151.802L75.283,151.802z"/>
<ellipse style="fill:#ABEBFF;" cx="300.251" cy="303.344" rx="200.871" ry="200.819"/>
<ellipse style="fill:#00A9FF;" cx="300.251" cy="303.344" rx="144.499" ry="200.819"/>
<g>
	<path style="fill:#00E5D4;" d="M300.252,370.978c-62.997,0-121.667,13.93-170.909,37.906
		c35.402,57.181,98.701,95.279,170.909,95.279c72.209,0,135.507-38.099,170.911-95.279
		C421.919,384.908,363.25,370.978,300.252,370.978z"/>
	<path style="fill:#00E5D4;" d="M300.252,235.706c62.998,0,121.667-13.93,170.911-37.905c-35.403-57.181-98.702-95.28-170.911-95.28
		S164.746,140.619,129.343,197.8C178.585,221.776,237.254,235.706,300.252,235.706z"/>
</g>
<path style="opacity:0.1;enable-background:new    ;" d="M128.498,303.342c0-106.015,82.173-192.834,186.313-200.291
	c-4.81-0.345-9.661-0.529-14.559-0.529c-110.935,0-200.868,89.91-200.868,200.821s89.933,200.821,200.868,200.821
	c4.896,0,9.749-0.185,14.559-0.529C210.671,496.177,128.498,409.358,128.498,303.342z"/>
<ellipse style="fill:#ABEBFF;" cx="300.251" cy="303.344" rx="69.879" ry="200.819"/>
<path style="fill:#0079F1;" d="M300.252,94.684c-115.081,0-208.705,93.604-208.705,208.658C91.546,418.396,185.171,512,300.252,512
	s208.706-93.604,208.706-208.658C508.958,188.287,415.332,94.684,300.252,94.684z M468.007,398.727
	c-9.146-4.221-18.529-8.085-28.125-11.576c7.581-23.747,11.877-49.433,12.588-75.972h40.641
	C491.837,342.918,482.868,372.708,468.007,398.727z M107.392,311.179h40.642c0.709,26.539,5.006,52.225,12.587,75.971
	c-9.595,3.491-18.98,7.355-28.127,11.576C117.636,372.708,108.667,342.918,107.392,311.179z M132.496,207.957
	c9.146,4.221,18.53,8.085,28.127,11.576c-7.581,23.746-11.877,49.432-12.587,75.971h-40.642
	C108.667,263.767,117.636,233.977,132.496,207.957z M377.91,295.505c-0.263-20.133-1.544-39.766-3.77-58.416
	c17.387-3.086,34.395-7.266,50.869-12.496c6.93,21.807,11.068,45.747,11.782,70.912H377.91z M308.089,494.486V378.898
	c16.348,0.308,32.541,1.577,48.45,3.783C347.141,444.002,327.58,485.506,308.089,494.486z M258.24,442.768
	c-6.114-17.572-10.925-37.926-14.3-60.085c15.916-2.209,32.118-3.478,48.476-3.787v115.574
	C280.186,488.811,267.847,470.374,258.24,442.768z M292.415,112.198v115.589c-16.35-0.308-32.542-1.577-48.45-3.784
	C253.363,162.681,272.923,121.179,292.415,112.198z M342.262,163.915c6.115,17.573,10.926,37.926,14.302,60.085
	c-15.916,2.208-32.117,3.477-48.475,3.787V112.213C320.316,117.874,332.655,136.31,342.262,163.915z M292.415,243.462v52.043
	h-54.147c0.264-19.853,1.526-38.594,3.588-55.972C258.462,241.834,275.36,243.152,292.415,243.462z M292.415,311.179v52.043
	c-17.057,0.31-33.958,1.628-50.568,3.931c-2.107-17.849-3.322-36.658-3.58-55.973h54.148V311.179z M308.089,363.221v-52.043h54.147
	c-0.264,19.854-1.526,38.595-3.589,55.972C342.041,364.849,325.142,363.531,308.089,363.221z M308.089,295.505v-52.043
	c17.057-0.31,33.958-1.628,50.568-3.931c2.107,17.849,3.322,36.658,3.581,55.973h-54.149V295.505z M372.032,221.547
	c-3.523-23.099-8.559-44.367-14.967-62.783c-5.963-17.138-12.926-31.071-20.62-41.524c35.737,13.875,65.657,47.772,83.311,92.579
	C404.298,214.704,388.342,218.625,372.032,221.547z M264.057,117.242c-7.693,10.452-14.656,24.385-20.619,41.523
	c-6.407,18.415-11.444,39.684-14.967,62.783c-16.309-2.922-32.263-6.843-47.722-11.728
	C198.403,165.012,228.322,131.117,264.057,117.242z M226.364,237.088c-2.227,18.651-3.507,38.284-3.771,58.417h-58.879
	c0.716-25.165,4.854-49.106,11.783-70.912C191.97,229.822,208.978,234.003,226.364,237.088z M163.714,311.179h58.879
	c0.264,20.133,1.544,39.766,3.771,58.417c-17.386,3.086-34.393,7.266-50.867,12.496C168.568,360.285,164.43,336.344,163.714,311.179
	z M228.471,385.137c3.523,23.097,8.559,44.366,14.967,62.783c5.963,17.138,12.926,31.071,20.619,41.523
	c-35.734-13.875-65.654-47.772-83.308-92.579C196.207,391.981,212.162,388.058,228.471,385.137z M336.444,489.444
	c7.693-10.452,14.656-24.386,20.62-41.524c6.408-18.415,11.444-39.684,14.967-62.783c16.31,2.922,32.265,6.844,47.724,11.728
	C402.101,441.673,372.182,475.569,336.444,489.444z M374.14,369.595c2.227-18.651,3.507-38.284,3.77-58.417h58.881
	c-0.716,25.165-4.854,49.106-11.782,70.913C408.534,376.861,391.526,372.682,374.14,369.595z M452.471,295.505
	c-0.711-26.539-5.006-52.224-12.588-75.971c9.595-3.49,18.98-7.355,28.126-11.575c14.859,26.019,23.829,55.809,25.103,87.547
	H452.471z M459.611,194.566c-8.135,3.697-16.468,7.099-24.973,10.197c-6.811-17.411-15.47-33.573-25.851-48.001
	c-7.175-9.973-14.956-18.826-23.23-26.504C415.412,145.026,440.921,167.283,459.611,194.566z M214.946,130.259
	c-8.275,7.678-16.055,16.532-23.23,26.504c-10.381,14.428-19.04,30.589-25.851,48.001c-8.507-3.098-16.837-6.501-24.973-10.198
	C159.584,167.283,185.093,145.026,214.946,130.259z M140.892,412.118c8.136-3.697,16.468-7.099,24.974-10.198
	c6.811,17.411,15.47,33.573,25.851,48c7.175,9.973,14.957,18.827,23.231,26.505C185.094,461.66,159.584,439.403,140.892,412.118z
	 M385.555,476.426c8.275-7.678,16.056-16.532,23.231-26.505c10.381-14.428,19.041-30.589,25.851-48.001
	c8.507,3.098,16.837,6.5,24.973,10.197C440.921,439.403,415.411,461.659,385.555,476.426z"/>
<g>
</g>
<g>
</g>
<g>
</g>
<g>
</g>
<g>
</g>
<g>
</g>
<g>
</g>
<g>
</g>
<g>
</g>
<g>
</g>
<g>
</g>
<g>
</g>
<g>
</g>
<g>
</g>
<g>
</g>
</svg>
