<?xml version="1.0" encoding="iso-8859-1"?>
<!-- Generator: Adobe Illustrator 19.0.0, SVG Export Plug-In . SVG Version: 6.00 Build 0)  -->
<svg version="1.1" id="Layer_1" xmlns="http://www.w3.org/2000/svg" xmlns:xlink="http://www.w3.org/1999/xlink" x="0px" y="0px"
	 viewBox="0 0 512.001 512.001" style="enable-background:new 0 0 512.001 512.001;" xml:space="preserve">
<path id="SVGCleanerId_0" style="fill:#333E48;" d="M383.988,0H128.015c-15.384,0-27.856,12.471-27.856,27.854v456.291
	c0,15.384,12.471,27.854,27.854,27.854h255.973c15.384,0,27.854-12.471,27.854-27.854V27.854C411.843,12.471,399.371,0,383.988,0z"
	/>
<g>
	<path id="SVGCleanerId_0_1_" style="fill:#333E48;" d="M383.988,0H128.015c-15.384,0-27.856,12.471-27.856,27.854v456.291
		c0,15.384,12.471,27.854,27.854,27.854h255.973c15.384,0,27.854-12.471,27.854-27.854V27.854C411.843,12.471,399.371,0,383.988,0z"
		/>
</g>
<path style="fill:#77E0C1;" d="M140.184,411.146v-322.8c0-6.525,5.29-11.815,11.815-11.815h208.005
	c6.525,0,11.815,5.29,11.815,11.815v322.8c0,6.525-5.29,11.815-11.815,11.815H151.999
	C145.474,422.961,140.184,417.671,140.184,411.146z"/>
<path style="fill:#FFFFFF;" d="M140.184,88.347v100.69h231.635V88.347c0-6.525-5.29-11.815-11.815-11.815H151.999
	C145.474,76.533,140.184,81.822,140.184,88.347z"/>
<ellipse style="opacity:0.2;enable-background:new    ;" cx="256.006" cy="302.868" rx="66.326" ry="23.886"/>
<path style="fill:#FF6361;" d="M256.004,302.868c9.159,0,63.442-66.347,63.442-113.831c0-35.038-28.404-63.442-63.442-63.442
	s-63.442,28.403-63.442,63.442C192.563,236.52,246.845,302.868,256.004,302.868z"/>
<g>
	<circle style="fill:#FFFFFF;" cx="256.006" cy="189.039" r="22.428"/>
	<path style="fill:#FFFFFF;" d="M304.033,375.207h-96.058c-4.738,0-8.577-3.84-8.577-8.577c0-4.737,3.839-8.577,8.577-8.577h96.058
		c4.738,0,8.577,3.84,8.577,8.577C312.609,371.367,308.771,375.207,304.033,375.207z"/>
</g>
<g>
	<circle style="fill:#5C6670;" cx="256.006" cy="467.481" r="20.982"/>
	<path style="fill:#5C6670;" d="M290.882,46.843h-69.756c-4.738,0-8.577-3.84-8.577-8.577s3.839-8.577,8.577-8.577h69.756
		c4.738,0,8.577,3.84,8.577,8.577S295.62,46.843,290.882,46.843z"/>
</g>
<path style="opacity:0.15;enable-background:new    ;" d="M407.564,481.875H151.589c-15.384,0-27.854-12.471-27.854-27.854V0.328
	c-13.352,2.058-23.575,13.599-23.575,27.527v456.291c0,15.384,12.471,27.854,27.854,27.854h255.973
	c15.384,0,27.854-12.472,27.854-27.854v-2.6C410.448,481.762,409.018,481.875,407.564,481.875z"/>
<g>
</g>
<g>
</g>
<g>
</g>
<g>
</g>
<g>
</g>
<g>
</g>
<g>
</g>
<g>
</g>
<g>
</g>
<g>
</g>
<g>
</g>
<g>
</g>
<g>
</g>
<g>
</g>
<g>
</g>
</svg>
